<svg width="24" height="22" viewBox="0 0 24 22" fill="none" xmlns="http://www.w3.org/2000/svg">
<path d="M17.6361 6.41659H17.6477M9 20.1666H15C20 20.1666 22 18.3333 22 13.7499V8.24992C22 3.66659 20 1.83325 15 1.83325H9C4 1.83325 2 3.66659 2 8.24992V13.7499C2 18.3333 4 20.1666 9 20.1666ZM15.5 10.9999C15.5 12.7718 13.933 14.2083 12 14.2083C10.067 14.2083 8.5 12.7718 8.5 10.9999C8.5 9.228 10.067 7.79159 12 7.79159C13.933 7.79159 15.5 9.228 15.5 10.9999Z" stroke="white" stroke-width="1.5" stroke-linecap="round" stroke-linejoin="round"/>
</svg>
