<svg width="22" height="22" viewBox="0 0 22 22" fill="none" xmlns="http://www.w3.org/2000/svg">
<path d="M3.66667 18.3334C3.1625 18.3334 2.73091 18.1539 2.37188 17.7949C2.01285 17.4358 1.83334 17.0042 1.83334 16.5001V5.50008C1.83334 4.99591 2.01285 4.56432 2.37188 4.20529C2.73091 3.84626 3.1625 3.66675 3.66667 3.66675H18.3333C18.8375 3.66675 19.2691 3.84626 19.6281 4.20529C19.9872 4.56432 20.1667 4.99591 20.1667 5.50008V16.5001C20.1667 17.0042 19.9872 17.4358 19.6281 17.7949C19.2691 18.1539 18.8375 18.3334 18.3333 18.3334H3.66667ZM11 11.9167L3.66667 7.33341V16.5001H18.3333V7.33341L11 11.9167ZM11 10.0834L18.3333 5.50008H3.66667L11 10.0834ZM3.66667 7.33341V5.50008V16.5001V7.33341Z" fill="#FEF7FF"/>
</svg>
