<svg width="24" height="22" viewBox="0 0 24 22" fill="none" xmlns="http://www.w3.org/2000/svg">
<path d="M20.6634 17.2066C20.6634 17.2066 19.5047 18.2498 19.2207 18.5557C18.7582 19.0081 18.2132 19.2218 17.4988 19.2218C17.4301 19.2218 17.3568 19.2218 17.2881 19.2176C15.9279 19.138 14.6639 18.652 13.716 18.2373C11.1238 17.0893 8.84773 15.4596 6.95631 13.3942C5.39464 11.6723 4.35047 10.0803 3.65893 8.37103C3.23302 7.32785 3.07731 6.51509 3.14601 5.74842C3.1918 5.25825 3.39789 4.85187 3.778 4.50414L5.33968 3.07553C5.56409 2.88281 5.80223 2.77808 6.03579 2.77808C6.32432 2.77808 6.55788 2.93728 6.70443 3.07134C6.70901 3.07553 6.71359 3.07972 6.71817 3.08391C6.99753 3.32271 7.26315 3.56989 7.54252 3.83383C7.68449 3.96789 7.83104 4.10195 7.97759 4.2402L9.22785 5.38393C9.71329 5.82802 9.71329 6.23859 9.22785 6.68267C9.09503 6.80417 8.9668 6.92566 8.83399 7.04296C8.4493 7.40326 8.7515 7.12681 8.35306 7.45359C8.3439 7.46197 8.33474 7.46616 8.33016 7.47454C7.93631 7.83483 8.00958 8.18675 8.09202 8.42555C8.0966 8.43812 8.10118 8.45068 8.10576 8.46325C8.43092 9.18384 8.88889 9.86254 9.585 10.6711L9.58958 10.6753C10.8536 12.0997 12.1863 13.2099 13.6564 14.0604C13.8441 14.1693 14.0365 14.2573 14.2197 14.3411C14.3845 14.4165 14.5402 14.4877 14.673 14.5631C14.6914 14.5715 14.7097 14.5841 14.728 14.5925C14.8837 14.6637 15.0303 14.6972 15.1814 14.6972C15.5615 14.6972 15.7997 14.4793 15.8775 14.4081L16.7752 13.5869C16.9309 13.4445 17.1782 13.2727 17.4667 13.2727C17.7507 13.2727 17.9842 13.4361 18.1262 13.5786C18.1308 13.5827 18.1308 13.5827 18.1354 13.5869L20.6588 15.8953C21.1305 16.3227 20.6634 17.2066 20.6634 17.2066Z" stroke="white" stroke-width="2" stroke-linecap="round" stroke-linejoin="round"/>
</svg>
