<svg width="24" height="22" viewBox="0 0 24 22" fill="none" xmlns="http://www.w3.org/2000/svg">
<path d="M23 2.74994C22.0424 3.36913 20.9821 3.84271 19.86 4.15244C19.2577 3.51766 18.4573 3.06774 17.567 2.86354C16.6767 2.65934 15.7395 2.7107 14.8821 3.01069C14.0247 3.31068 13.2884 3.84481 12.773 4.54085C12.2575 5.23689 11.9877 6.06125 12 6.90244V7.81911C10.2426 7.86088 8.50127 7.5036 6.93101 6.7791C5.36074 6.0546 4.01032 4.98536 3 3.66661C3 3.66661 -1 11.9166 8 15.5833C5.94053 16.8647 3.48716 17.5073 1 17.4166C10 21.9999 21 17.4166 21 6.87494C20.9991 6.61961 20.9723 6.3649 20.92 6.11411C21.9406 5.19148 22.6608 4.02659 23 2.74994Z" stroke="white" stroke-linecap="round" stroke-linejoin="round"/>
</svg>
